<svg xmlns="http://www.w3.org/2000/svg" viewBox="0 0 1200 760" role="img" aria-labelledby="title desc">
  <title id="title">Attention control diagram</title>
  <desc id="desc">A system diagram showing signal, filter, action, and feedback loops for attention.</desc>
  <rect width="1200" height="760" fill="#fbf8ef"/>
  <rect x="86" y="86" width="1028" height="588" rx="28" fill="#f7f1e4"/>
  <path d="M214 382h174" fill="none" stroke="#6e91aa" stroke-width="18" stroke-linecap="round"/>
  <path d="M244 330h144" fill="none" stroke="#6e91aa" stroke-width="18" stroke-linecap="round" opacity=".85"/>
  <path d="M814 382h174" fill="none" stroke="#d49a2b" stroke-width="18" stroke-linecap="round"/>
  <path d="M814 330h144" fill="none" stroke="#d49a2b" stroke-width="18" stroke-linecap="round" opacity=".85"/>
  <path d="M388 356l-34 26 34 26" fill="none" stroke="#6e91aa" stroke-width="10" stroke-linecap="round" stroke-linejoin="round"/>
  <path d="M814 356l34 26-34 26" fill="none" stroke="#d49a2b" stroke-width="10" stroke-linecap="round" stroke-linejoin="round"/>
  <g transform="translate(438 164)">
    <path d="M162 0c70 0 126 56 126 126v120c0 56-36 94-92 94h-32c-56 0-92-38-92-94V126C72 56 128 0 198 0Z" fill="#2d4569"/>
    <rect x="96" y="332" width="204" height="114" rx="28" fill="#2d4569"/>
    <path d="M136 154c0-38 26-64 64-64h0c38 0 64 26 64 64" fill="none" stroke="#fbf8ef" stroke-width="8" stroke-linecap="round"/>
    <circle cx="200" cy="80" r="58" fill="#2d4569"/>
  </g>
  <path d="M536 322c44-80 164-84 210-8" fill="none" stroke="#8cb09a" stroke-width="8" stroke-linecap="round"/>
  <path d="M748 324l-24-18 6 28" fill="none" stroke="#8cb09a" stroke-width="8" stroke-linecap="round" stroke-linejoin="round"/>
  <path d="M736 450c-48 80-172 84-220 2" fill="none" stroke="#d49a2b" stroke-width="8" stroke-linecap="round"/>
  <path d="M520 446l22 18-4-30" fill="none" stroke="#d49a2b" stroke-width="8" stroke-linecap="round" stroke-linejoin="round"/>
  <path d="M624 274v224" fill="none" stroke="#fbf8ef" stroke-width="6" stroke-dasharray="10 14" stroke-linecap="round"/>
  <rect x="518" y="318" width="212" height="128" rx="22" fill="none" stroke="#fbf8ef" stroke-width="7"/>
  <text x="600" y="290" fill="#8cb09a" font-family="IBM Plex Mono, monospace" font-size="24" letter-spacing="3">SIGNAL</text>
  <text x="546" y="394" fill="#fbf8ef" font-family="IBM Plex Mono, monospace" font-size="34">FILTER</text>
  <text x="476" y="614" fill="#1a1a16" font-family="Newsreader, Georgia, serif" font-size="56" font-weight="600">Less noise. Better feedback.</text>
</svg>
